# xmcd
#
# Track frame offsets: 
#        150
#        13300
#        26219
#        51780
#        65523
#        79921
#        92205
#        109191
#        124999
#        144841
#        162303
#        174873
#        186248
#        199159
#        211639
#        222020
#        239355
#        253947
#        266777
#        282186
#
# Disc length: 4025 seconds
#
# Revision: 0
# Processed by: cddbd v1.5.2PL0 Copyright (c) Steve Scherf et al.
# Submitted via: ExactAudioCopyFreeDBPlugin 1.0
#
DISCID=2b0fb714
DTITLE=Various Artist - Lost Deep Soul Treasures [S.O.S. Sounds of So
DTITLE=ul]
DYEAR=2001
DGENRE=Soul
TTITLE0=Phil Flowers - A Heart That Cries
TTITLE1=Reatha Reese - Things I Should Have Done
TTITLE2=Willie Johnson - Glory of Love
TTITLE3=Nashville Depoe - Falling for You
TTITLE4=Ernie K-Doe - A Long Way Back from Home
TTITLE5=Charles and Ivory - My Little Baby
TTITLE6=Loretta Kendrick - My Feelings Keep Getting in the Way
TTITLE7=Joe Odom - If You Knew Her Like I Do
TTITLE8=Blue Rivers and The Maroons - I’ve Been Pushed Around
TTITLE9=The Glories - Try a Little Tenderness
TTITLE10=Joe Simon - It’s Too Late
TTITLE11=Louis Jordan - Comin’ Down
TTITLE12=Grover Mitchell - Time Brings About a Change
TTITLE13=The Ohio Untouchables - I’m Tired
TTITLE14=Oscar Mack - I’ll Go on Lovin’ You
TTITLE15=Jimmy Dobbins - What is Love (I Found Love)
TTITLE16=The Patterson Twins - He’s a Loser
TTITLE17=Art Grayson - When I Get Home
TTITLE18=Sammy Jones - Nothing Can Change This Love
TTITLE19=Joe Anderson - You Gotta Believe
EXTD=
EXTT0=
EXTT1=
EXTT2=
EXTT3=
EXTT4=
EXTT5=
EXTT6=
EXTT7=
EXTT8=
EXTT9=
EXTT10=
EXTT11=
EXTT12=
EXTT13=
EXTT14=
EXTT15=
EXTT16=
EXTT17=
EXTT18=
EXTT19=
PLAYORDER=
